<svg width="40" height="40" viewBox="0 0 40 40" fill="none" xmlns="http://www.w3.org/2000/svg">
<path d="M28.96 9.3333H11.16C10.9306 9.32256 10.7013 9.35716 10.4852 9.43514C10.2692 9.51313 10.0707 9.63296 9.90098 9.78776C9.73131 9.94257 9.59383 10.1293 9.49643 10.3373C9.39903 10.5453 9.3436 10.7705 9.33334 11V28.84C9.34678 29.3201 9.54355 29.7771 9.88324 30.1167C10.2229 30.4564 10.6798 30.6532 11.16 30.6667H28.96C29.4268 30.6459 29.8669 30.4429 30.186 30.1015C30.5051 29.76 30.6776 29.3072 30.6667 28.84V11C30.6705 10.7766 30.6287 10.5549 30.5437 10.3483C30.4588 10.1417 30.3325 9.95468 30.1727 9.79861C30.0129 9.64256 29.8229 9.5208 29.6144 9.44078C29.4059 9.36077 29.1832 9.3242 28.96 9.3333ZM16 27.12H12.8933V17.6133H16V27.12ZM14.52 16.1733C14.3032 16.1809 14.0872 16.1435 13.8855 16.0636C13.6839 15.9837 13.5009 15.8629 13.3482 15.7089C13.1954 15.5549 13.0761 15.3709 12.9979 15.1686C12.9196 14.9663 12.884 14.75 12.8933 14.5333C12.8837 14.3142 12.9201 14.0956 12.9999 13.8914C13.0798 13.6872 13.2015 13.5019 13.3572 13.3475C13.5128 13.1931 13.6991 13.0729 13.9039 12.9947C14.1088 12.9165 14.3277 12.8819 14.5467 12.8933C14.7635 12.8858 14.9795 12.9231 15.1811 13.003C15.3828 13.0829 15.5657 13.2037 15.7185 13.3577C15.8713 13.5117 15.9905 13.6957 16.0688 13.898C16.1471 14.1003 16.1827 14.3166 16.1733 14.5333C16.1829 14.7524 16.1466 14.971 16.0667 15.1752C15.9869 15.3794 15.8652 15.5647 15.7095 15.7191C15.5538 15.8735 15.3676 15.9937 15.1628 16.0719C14.9579 16.1501 14.739 16.1847 14.52 16.1733ZM27.12 27.12H24V21.92C24 20.68 23.56 19.8267 22.4533 19.8267C22.1096 19.8296 21.7751 19.9388 21.4959 20.1393C21.2165 20.3399 21.0061 20.6219 20.8933 20.9467C20.8067 21.1901 20.7704 21.4487 20.7867 21.7067V27.12H17.72V17.6133H20.7867V18.9467C21.0593 18.4457 21.4651 18.03 21.9592 17.7452C22.4533 17.4605 23.0165 17.318 23.5867 17.3333C25.6 17.3333 27.12 18.6667 27.12 21.5067V27.12Z" fill="#A1A1A1"/>
<circle cx="20" cy="20" r="19" stroke="#535353" stroke-width="2"/>
</svg>
