<svg xmlns="http://www.w3.org/2000/svg" xmlns:xlink="http://www.w3.org/1999/xlink" width="141" zoomAndPan="magnify" viewBox="0 0 105.75 74.249996" height="99" preserveAspectRatio="xMidYMid meet" version="1.0"><defs><clipPath id="a92cc1c4a9"><path d="M 37 0 L 69 0 L 69 72.765625 L 37 72.765625 Z M 37 0 " clip-rule="nonzero"/></clipPath></defs><path fill="#000000" d="M 26.757812 62.515625 C 25.222656 62.515625 24.199219 62.003906 23.171875 60.980469 L 2.675781 40.480469 C 0.625 38.433594 0.625 35.359375 2.675781 33.308594 L 23.171875 12.8125 C 25.222656 10.761719 28.296875 10.761719 30.347656 12.8125 C 32.394531 14.859375 32.394531 17.933594 30.347656 19.984375 L 13.4375 36.894531 L 30.347656 53.804688 C 32.394531 55.855469 32.394531 58.929688 30.347656 60.980469 C 29.320312 62.003906 28.296875 62.515625 26.757812 62.515625 Z M 26.757812 62.515625 " fill-opacity="1" fill-rule="nonzero"/><path fill="#000000" d="M 78 62.515625 C 76.464844 62.515625 75.4375 62.003906 74.414062 60.980469 C 72.363281 58.929688 72.363281 55.855469 74.414062 53.804688 L 91.324219 36.894531 L 74.414062 19.984375 C 72.363281 17.933594 72.363281 14.859375 74.414062 12.8125 C 76.464844 10.761719 79.539062 10.761719 81.585938 12.8125 L 102.085938 33.308594 C 104.132812 35.359375 104.132812 38.433594 102.085938 40.480469 L 81.585938 60.980469 C 80.5625 62.003906 79.539062 62.515625 78 62.515625 Z M 78 62.515625 " fill-opacity="1" fill-rule="nonzero"/><g clip-path="url(#a92cc1c4a9)"><path fill="#000000" d="M 42.132812 72.765625 C 41.621094 72.765625 41.105469 72.765625 40.59375 72.253906 C 38.03125 71.226562 36.496094 68.664062 37.519531 65.589844 L 58.015625 4.097656 C 59.042969 1.539062 61.601562 0 64.679688 1.023438 C 67.238281 2.050781 68.777344 4.613281 67.753906 7.6875 L 47.257812 69.179688 C 46.230469 71.226562 44.179688 72.765625 42.132812 72.765625 Z M 42.132812 72.765625 " fill-opacity="1" fill-rule="nonzero"/></g></svg>