<svg width="278" height="278" viewBox="0 0 278 278" fill="none" xmlns="http://www.w3.org/2000/svg">
<path d="M139.122 195.94C170.509 195.94 195.954 170.495 195.954 139.108C195.954 107.72 170.509 82.2754 139.122 82.2754C107.734 82.2754 82.2891 107.72 82.2891 139.108C82.2891 170.495 107.734 195.94 139.122 195.94Z" stroke="white" stroke-width="21.3122" stroke-linecap="round" stroke-linejoin="round"/>
<path d="M11.248 195.94V82.2749C11.248 43.0404 43.054 11.2344 82.2886 11.2344H195.953C235.188 11.2344 266.994 43.0404 266.994 82.2749V195.94C266.994 235.174 235.188 266.98 195.953 266.98H82.2886C43.054 266.98 11.248 235.174 11.248 195.94Z" stroke="white" stroke-width="21.3122"/>
<path d="M217.266 61.1071L217.408 60.9492" stroke="white" stroke-width="21.3122" stroke-linecap="round" stroke-linejoin="round"/>
</svg>
