<svg width="40" height="40" viewBox="0 0 40 40" fill="none" xmlns="http://www.w3.org/2000/svg">
<circle cx="20" cy="20" r="19" stroke="#535353" stroke-width="2"/>
<path d="M16.6148 31.25V28.0509L16.6569 25.7774C16.7074 25.0701 16.983 24.4035 17.4363 23.8875C17.443 23.8799 17.4497 23.8724 17.4564 23.8649C17.4739 23.8454 17.4624 23.8139 17.4363 23.8106C14.4069 23.4325 11.2506 22.1534 11.2506 16.5844C11.2309 15.2128 11.6784 13.8831 12.5055 12.8402C12.5344 12.8037 12.5638 12.7676 12.5937 12.7318C12.6325 12.6853 12.6452 12.6222 12.6274 12.5642C12.6263 12.5607 12.6253 12.5571 12.6242 12.5536C12.604 12.4874 12.5851 12.4208 12.5674 12.354C12.2633 11.2059 12.3287 9.97954 12.7566 8.87273C12.7597 8.86455 12.7629 8.85639 12.7661 8.84823C12.7821 8.80749 12.8156 8.77635 12.8587 8.76866C13.1274 8.72076 14.213 8.65668 16.2912 10.0918C16.3559 10.1365 16.4216 10.1826 16.4882 10.2302C16.5363 10.2646 16.5974 10.2751 16.6543 10.259L16.6597 10.2574C16.7712 10.2257 16.8831 10.1956 16.9952 10.1671C18.9708 9.66533 21.0293 9.66533 23.0048 10.1671C23.1111 10.1941 23.2171 10.2226 23.323 10.2525L23.3299 10.2545C23.3968 10.2734 23.4686 10.261 23.5252 10.2207C23.5872 10.1764 23.6484 10.1335 23.7088 10.0918C25.7821 8.6597 26.8617 8.7205 27.1316 8.76836C27.1755 8.77615 27.2097 8.80785 27.2262 8.84933C27.2284 8.85466 27.2304 8.85999 27.2325 8.86533C27.6676 9.97264 27.7367 11.2027 27.4325 12.354C27.4144 12.4226 27.3949 12.491 27.3741 12.559C27.3554 12.6202 27.3689 12.6868 27.4097 12.7359L27.4136 12.7406C27.441 12.7735 27.468 12.8067 27.4945 12.8402C28.3216 13.8831 28.7691 15.2128 28.7494 16.5844C28.7494 22.1838 25.5706 23.4294 22.5268 23.7688C22.5091 23.7706 22.5013 23.7917 22.5131 23.8049C22.5176 23.8099 22.5223 23.8149 22.5268 23.8199C22.8339 24.162 23.0721 24.568 23.2264 25.0129C23.3876 25.478 23.4532 25.9746 23.4189 26.4692V31.25" stroke="#A1A1A1" stroke-width="2" stroke-linecap="round" stroke-linejoin="round"/>
<path d="M10 26.25C10.4614 26.3154 10.902 26.4854 11.2883 26.7469C11.6746 27.0085 11.9966 27.3547 12.2298 27.7597C12.4279 28.1202 12.695 28.438 13.0158 28.6946C13.3366 28.9512 13.7047 29.1419 14.0991 29.2554C14.4935 29.369 14.9063 29.4033 15.3139 29.3563C15.7215 29.3094 16.1158 29.1821 16.4743 28.9819" stroke="#A1A1A1" stroke-width="2" stroke-linecap="round" stroke-linejoin="round"/>
</svg>
