<svg width="40" height="40" viewBox="0 0 40 40" fill="none" xmlns="http://www.w3.org/2000/svg">
<circle cx="20" cy="20" r="19" stroke="#535353" stroke-width="2"/>
<path fill-rule="evenodd" clip-rule="evenodd" d="M20 26.5454C23.615 26.5454 26.5455 23.6149 26.5455 20C26.5455 16.385 23.615 13.4545 20 13.4545C16.385 13.4545 13.4546 16.385 13.4546 20C13.4546 23.6149 16.385 26.5454 20 26.5454ZM20 24.3636C22.4099 24.3636 24.3636 22.4099 24.3636 20C24.3636 17.59 22.4099 15.6363 20 15.6363C17.59 15.6363 15.6364 17.59 15.6364 20C15.6364 22.4099 17.59 24.3636 20 24.3636Z" fill="#A1A1A1"/>
<path d="M26.5455 12.3636C25.9429 12.3636 25.4545 12.852 25.4545 13.4545C25.4545 14.057 25.9429 14.5454 26.5455 14.5454C27.148 14.5454 27.6364 14.057 27.6364 13.4545C27.6364 12.852 27.148 12.3636 26.5455 12.3636Z" fill="#A1A1A1"/>
<path fill-rule="evenodd" clip-rule="evenodd" d="M8.71341 11.5739C8 12.974 8 14.8069 8 18.4727V21.5273C8 25.1931 8 27.026 8.71341 28.4261C9.34095 29.6577 10.3423 30.6591 11.5739 31.2865C12.974 32 14.8069 32 18.4727 32H21.5273C25.1931 32 27.026 32 28.4261 31.2865C29.6577 30.6591 30.6591 29.6577 31.2865 28.4261C32 27.026 32 25.1931 32 21.5273V18.4727C32 14.8069 32 12.974 31.2865 11.5739C30.6591 10.3423 29.6577 9.34095 28.4261 8.71341C27.026 8 25.1931 8 21.5273 8H18.4727C14.8069 8 12.974 8 11.5739 8.71341C10.3423 9.34095 9.34095 10.3423 8.71341 11.5739ZM21.5273 10.1818H18.4727C16.6038 10.1818 15.3334 10.1835 14.3514 10.2637C13.3948 10.3419 12.9056 10.4836 12.5644 10.6574C11.7433 11.0758 11.0758 11.7433 10.6574 12.5644C10.4836 12.9056 10.3419 13.3948 10.2637 14.3514C10.1835 15.3334 10.1818 16.6038 10.1818 18.4727V21.5273C10.1818 23.3962 10.1835 24.6666 10.2637 25.6486C10.3419 26.6052 10.4836 27.0944 10.6574 27.4356C11.0758 28.2567 11.7433 28.9242 12.5644 29.3425C12.9056 29.5164 13.3948 29.6581 14.3514 29.7363C15.3334 29.8164 16.6038 29.8182 18.4727 29.8182H21.5273C23.3962 29.8182 24.6666 29.8164 25.6486 29.7363C26.6052 29.6581 27.0944 29.5164 27.4356 29.3425C28.2567 28.9242 28.9242 28.2567 29.3425 27.4356C29.5164 27.0944 29.6581 26.6052 29.7363 25.6486C29.8164 24.6666 29.8182 23.3962 29.8182 21.5273V18.4727C29.8182 16.6038 29.8164 15.3334 29.7363 14.3514C29.6581 13.3948 29.5164 12.9056 29.3425 12.5644C28.9242 11.7433 28.2567 11.0758 27.4356 10.6574C27.0944 10.4836 26.6052 10.3419 25.6486 10.2637C24.6666 10.1835 23.3962 10.1818 21.5273 10.1818Z" fill="#A1A1A1"/>
</svg>
